<?xml version="1.0" encoding="UTF-8"?>
<svg id="Layer_1" data-name="Layer 1" xmlns="http://www.w3.org/2000/svg" viewBox="0 0 473.62 300.32">
  <defs>
    <style>
      .cls-1 {
        fill: #000;
      }

      .cls-1, .cls-2 {
        stroke-width: 0px;
      }

      .cls-2 {
        fill: #fe0000;
      }
    </style>
  </defs>
  <path class="cls-1" d="M.01,86.19V.15C1.64.1,3.22,0,4.81,0c36.39.03,72.78.07,109.17.13,9.08.02,18.16-.07,27.23.27,36.08,1.36,67.32,14.53,93.87,38.92,1.65,1.52,3.12,3.22,4.72,4.79,2.91,2.87,5.98,5.6,8.76,8.59,6.46,6.96,11.46,14.95,15.85,23.32,8.07,15.39,14,31.55,17.36,48.62,1.27,6.45,1.76,12.98,1.88,19.53.12,6.33.14,12.67.08,19.01-.08,8.15,2.42,15.44,7.01,22.1,4.7,6.82,9.82,13.28,16.15,18.68,9.84,8.41,20.77,14.65,33.77,16.7,5.23.82,10.49.89,15.76.89,8.69,0,17.38,0,26.06,0,.52,0,1.04-.04,1.64-.07v-54.83h89.5v133.53c-.23.02-.5.07-.77.07-38.1,0-76.2.01-114.3-.03-11.51-.01-22.98-.64-34.36-2.52-20.21-3.34-39.23-9.91-56.58-20.94-18.59-11.82-34.49-26.53-47.12-44.62-8.82-12.63-14.54-26.66-18.09-41.61-2.64-11.15-4.21-22.45-4.51-33.9-.16-6.15-.33-12.3-1.04-18.42-.9-7.74-3.52-14.77-7.99-21.22-4.47-6.46-9.52-12.31-15.7-17.19-10.58-8.36-22.62-12.84-36.07-13.39-6.75-.28-13.53-.21-20.29-.21-38.56-.02-77.12,0-115.69,0-.35,0-.7,0-1.12,0Z"/>
  <path class="cls-2" d="M0,118.11h89.48v95.98c.34.03.62.06.89.06,14.67,0,29.34.11,44.01-.03,16.34-.16,30.69-5.66,42.82-16.7.95-.86,1.81-1.82,2.7-2.73.89-.91,1.78-1.83,2.8-2.88,3.25,14.88,8.37,28.8,15.83,41.83,7.47,13.03,16.86,24.53,27.72,35.04-1.81,1.36-3.53,2.67-5.28,3.94-14.02,10.19-29.27,17.85-46.05,22.38-10,2.7-20.17,4.47-30.51,4.82-10.74.36-21.49.42-32.24.45-25.99.07-51.98.07-77.98.07-11.07,0-22.14-.07-33.22-.11-.31,0-.62-.04-.98-.07V118.11Z"/>
  <path class="cls-2" d="M257.22,33.75c7.89-5.99,16.02-11.53,24.77-16.1,15.95-8.33,32.94-13.4,50.73-15.87,11.07-1.54,22.18-2,33.34-1.44,18.91.96,37.25,4.58,54.69,12.14,12.31,5.33,23.58,12.39,33.86,21.01.89.75,1.71,1.58,2.67,2.47-19.56,19.82-39.01,39.54-58.51,59.3-2.04-1.39-4-2.79-6.02-4.11-13.11-8.49-27.43-12.9-43.09-12.34-16.95.61-31.75,6.64-44.1,18.34-2.68,2.54-5.01,5.43-7.5,8.16-.21.23-.39.49-.69.86-.5-1.64-.94-3.15-1.41-4.66-5.35-16.97-12.52-33.1-22.33-47.99-4.67-7.1-9.92-13.73-16.24-19.45-.05-.04-.07-.12-.18-.32Z"/>
</svg>