<?xml version="1.0" encoding="UTF-8"?>
<!DOCTYPE svg PUBLIC "-//W3C//DTD SVG 1.1//EN" "http://www.w3.org/Graphics/SVG/1.1/DTD/svg11.dtd">
<!-- Creator: CorelDRAW X7 -->
<svg xmlns="http://www.w3.org/2000/svg" xml:space="preserve" width="101.6mm" height="67.2592mm" version="1.1" style="shape-rendering:geometricPrecision; text-rendering:geometricPrecision; image-rendering:optimizeQuality; fill-rule:evenodd; clip-rule:evenodd"
viewBox="0 0 10160 6726"
 xmlns:xlink="http://www.w3.org/1999/xlink">
 <defs>
  <style type="text/css">
   <![CDATA[
    .fil0 {fill:black}
    .fil5 {fill:#69665E}
    .fil3 {fill:#A19E7B}
    .fil2 {fill:#FE0000}
    .fil4 {fill:#FF7468}
    .fil1 {fill:white}
   ]]>
  </style>
 </defs>
 <g id="Layer_x0020_1">
  <metadata id="CorelCorpID_0Corel-Layer"/>
  <g id="_2727456863568">
   <path class="fil0" d="M9771 6338l0 -2647 -1768 0c4,89 0,185 0,275l-1 745c0,11 0,23 0,34 0,21 1,21 -5,33 -20,-5 -150,1 -182,1 -161,0 -416,2 -559,-6 -311,-18 -538,-144 -755,-318 -131,-105 -284,-281 -371,-425 -143,-236 -120,-355 -120,-631 0,-121 -2,-243 -13,-363 -35,-373 -198,-809 -364,-1134 -72,-138 -162,-279 -257,-399 -73,-92 -111,-116 -186,-191 -16,-16 -29,-32 -46,-47 -44,-40 -64,-68 -92,-94 -10,-8 -17,-13 -25,-22l-49 -44c-97,-97 -350,-267 -466,-333 -327,-187 -699,-323 -1141,-364 -242,-23 -484,-18 -729,-18l-1876 0c-121,0 -256,-9 -375,1 -9,27 -3,756 -3,849 0,284 -5,572 0,856 139,-5 285,-1 425,-1l2129 1c348,1 567,50 829,233 22,15 42,30 60,45l113 100c46,46 108,122 146,175 148,203 192,330 213,639 9,134 5,267 19,403 12,127 30,250 55,373 47,230 118,447 214,641 74,149 148,265 244,391 31,41 62,81 97,119l179 189c37,37 21,28 81,80l111 101c21,16 37,33 59,51 291,238 656,457 1121,580 529,139 1020,121 1582,121 426,0 852,0 1278,0 141,0 288,-3 428,1z"/>
   <path class="fil1" d="M394 6335c-9,-6 -7,8 -9,-11l2 -3596c35,-11 377,-3 443,-3 102,0 1293,-6 1334,1l0 1905c186,6 384,0 571,0 415,0 693,16 1049,-238 28,-19 61,-44 81,-63 27,-26 48,-40 74,-70l69 -68c23,79 38,158 63,237 100,322 204,530 387,803 41,60 85,116 127,169 12,15 23,26 35,41l68 80c16,15 21,23 34,38l146 150c-18,21 -64,51 -90,70 -224,164 -458,295 -728,391 -359,126 -702,166 -1112,167l-1914 1c-140,0 -514,6 -630,-4zm31 -6335l104 0c44,2 86,4 127,4 180,0 1917,6 1968,-1 8,-1 24,-2 44,-3l305 0c8,1 14,1 18,2 55,8 132,-2 185,5 28,4 63,1 89,5 16,2 30,0 45,1l212 21c54,6 109,17 161,25 288,48 586,151 845,281l122 65c98,58 198,113 290,179l161 119c29,22 76,67 102,84 75,-65 157,-123 240,-178 42,-28 82,-57 125,-83 165,-97 298,-178 481,-251 296,-116 569,-196 903,-240 118,-15 268,-31 389,-31 69,0 138,0 207,0l153 4c45,2 99,11 144,13 189,11 440,63 617,111 187,51 360,115 531,201 171,85 300,162 458,271 41,28 77,59 118,89 13,10 17,15 30,25 48,37 98,74 141,117 9,9 16,17 25,25 36,32 73,67 104,104 28,34 102,97 126,132 -17,25 -79,82 -105,107 -35,36 -68,68 -104,104l-415 422c-21,16 -36,35 -52,54 -24,27 -56,50 -78,79 -38,47 -87,86 -130,128 -19,20 -31,36 -51,56l-414 419c-49,48 -278,290 -311,312 -53,-29 -107,-75 -158,-109 -89,-59 -170,-122 -262,-177 -329,-198 -775,-216 -1095,11 -105,74 -191,165 -265,268 -74,102 -141,243 -161,368 -6,34 3,52 3,83l0 263c0,206 -4,259 115,417 26,35 49,65 76,98 15,18 29,31 41,48 20,25 46,44 69,66 83,80 182,148 286,197 78,38 189,73 280,75l348 4 0 -1087 2548 0 0 3424 -22 0 -23 0 -22 0 -23 0 -22 0 -23 0 -22 0 -23 0 -22 0 -23 0 -22 0 -23 0 -22 0 -23 0 -22 0 -23 0 -22 0 -23 0 -22 0 -23 0 -22 0 -23 0 -22 0 -23 0 -22 0 -23 0 -22 0 -23 0 -22 0 -23 0 -22 0 -23 0 -22 0 -23 0 -22 0 -23 0 -22 0 -23 0 -22 0 -23 0 -22 0 -23 0 -22 0 -23 0 -22 0 -23 0 -22 0 -22 0 -23 0 -22 0 -23 0 -22 0 -23 0 -22 0 -23 0 -22 0 -23 0 -22 0 -23 0 -22 0 -23 0 -22 0 -23 0 -22 0 -4 0 -1240 0c-6,0 -11,0 -13,-1 -51,-5 -122,2 -173,-4l-255 -16c-25,-1 -55,-7 -81,-9 -104,-9 -217,-27 -313,-46 -206,-41 -384,-92 -563,-156 -72,-26 -246,-99 -317,-137 -116,-61 -230,-124 -341,-197 -19,-12 -35,-23 -53,-35 -36,-24 -68,-48 -104,-75l-99 -78c-17,12 -34,26 -50,40l-154 113c-70,50 -138,95 -214,141 -119,71 -172,96 -289,155 -20,10 -39,18 -61,28 -235,110 -559,198 -830,238 -88,12 -446,51 -498,30l-3065 5c4,-139 0,-284 0,-424l0 -4618c0,-49 -6,-1622 2,-1676 77,0 316,6 374,0 15,-2 30,-3 45,-4zm2657 4241l-534 0 0 -1756 508 0c136,0 274,39 365,84 57,29 85,45 139,86 118,88 186,173 265,293 51,77 74,155 82,256 11,122 13,176 13,297 0,128 -100,305 -180,408 -27,35 -67,69 -98,101 -137,137 -367,231 -560,231zm4915 537l2 -1089c27,-7 182,-2 222,-2 156,0 1508,-5 1552,1 7,36 2,1296 2,1328 0,422 -4,865 0,1287l-1 28c0,1 -1,4 -1,4 -1,-1 -1,2 -2,3 -140,-4 -287,-1 -428,-1 -426,0 -852,0 -1278,0 -562,0 -1053,18 -1582,-121 -465,-123 -830,-342 -1121,-580 -22,-18 -38,-35 -59,-51l-111 -101c-60,-52 -44,-43 -81,-80l-179 -189c-35,-38 -66,-78 -97,-119 -96,-126 -170,-242 -244,-391 -96,-194 -167,-411 -214,-641 -25,-123 -43,-246 -55,-373 -14,-136 -10,-269 -19,-403 -21,-309 -65,-436 -213,-639 -38,-53 -100,-129 -146,-175l-113 -100c-18,-15 -38,-30 -60,-45 -262,-183 -481,-232 -829,-233l-2129 -1c-140,0 -286,-4 -425,1 -5,-284 0,-572 0,-856 0,-93 -6,-822 3,-849 119,-10 254,-1 375,-1l1876 0c245,0 487,-5 729,18 442,41 814,177 1141,364 116,66 369,236 466,333l49 44c8,9 15,14 25,22 28,26 48,54 92,94 17,15 30,31 46,47 75,75 113,99 186,191 95,120 185,261 257,399 166,325 329,761 364,1134 11,120 13,242 13,363 0,276 -23,395 120,631 87,144 240,320 371,425 217,174 444,300 755,318 143,8 398,6 559,6 32,0 162,-6 182,-1zm-2511 -3720c54,-56 339,-237 398,-271 465,-268 1048,-406 1605,-397 571,9 1112,130 1578,423 67,42 352,236 378,288 -10,18 -53,61 -72,76 -38,32 -172,176 -216,221l-58 55c-9,8 -10,7 -18,16 -24,25 -45,53 -70,74l-71 73c-13,14 -21,24 -35,37 -13,12 -23,24 -37,35 -33,24 -46,48 -73,75 -12,13 -25,23 -37,35l-469 476c-17,-8 -39,-26 -56,-38 -310,-214 -651,-327 -1045,-277 -200,26 -392,97 -533,188 -40,25 -71,47 -106,75 -107,85 -91,79 -186,169 -20,19 -58,72 -81,97 -3,-3 1,3 -4,-7l-30 -97c-38,-113 -65,-196 -111,-308 -102,-251 -236,-510 -392,-722l-157 -194c-13,-16 -44,-40 -68,-68 -11,-14 -24,-21 -34,-34z"/>
   <path class="fil2" d="M394 6335c116,10 490,4 630,4l1914 -1c410,-1 753,-41 1112,-167 270,-96 504,-227 728,-391 26,-19 72,-49 90,-70l-146 -150c-13,-15 -18,-23 -34,-38l-68 -80c-12,-15 -23,-26 -35,-41 -42,-53 -86,-109 -127,-169 -183,-273 -287,-481 -387,-803 -25,-79 -40,-158 -63,-237l-69 68c-26,30 -47,44 -74,70 -20,19 -53,44 -81,63 -356,254 -634,238 -1049,238 -187,0 -385,6 -571,0 -6,-9 -2,1 -4,-13l0 -935c0,-317 -6,-640 0,-955l-1770 0c5,149 1,305 1,455 0,149 2,300 -1,449 -5,299 0,602 0,901 0,174 -6,1777 4,1802z"/>
   <path class="fil2" d="M5486 1058c10,13 23,20 34,34 24,28 55,52 68,68l157 194c156,212 290,471 392,722 46,112 73,195 111,308l30 97c5,10 1,4 4,7 23,-25 61,-78 81,-97 95,-90 79,-84 186,-169 35,-28 66,-50 106,-75 141,-91 333,-162 533,-188 394,-50 735,63 1045,277 17,12 39,30 56,38l469 -476c12,-12 25,-22 37,-35 27,-27 40,-51 73,-75 14,-11 24,-23 37,-35 14,-13 22,-23 35,-37l71 -73c25,-21 46,-49 70,-74 8,-9 9,-8 18,-16l58 -55c44,-45 178,-189 216,-221 19,-15 62,-58 72,-76 -26,-52 -311,-246 -378,-288 -466,-293 -1007,-414 -1578,-423 -557,-9 -1140,129 -1605,397 -59,34 -344,215 -398,271z"/>
   <path class="fil3" d="M3057 6726c18,-1 5,2 12,-9l-3065 5c4,-139 0,-284 0,-424l0 -4618c0,-49 -6,-1622 2,-1676 -8,9 -1,-4 -5,10 0,1 -1,71 -1,193l0 6514 0 5 3057 0z"/>
   <path class="fil4" d="M394 6335c-10,-25 -4,-1628 -4,-1802 0,-299 -5,-602 0,-901 3,-149 1,-300 1,-449 0,-150 4,-306 -1,-455l1770 0c-6,315 0,638 0,955l0 935c2,14 -2,4 4,13l0 -1905c-41,-7 -1232,-1 -1334,-1 -66,0 -408,-8 -443,3l-2 3596c2,19 0,5 9,11z"/>
   <path class="fil5" d="M7997 4778c6,-12 5,-12 5,-33 0,-11 0,-23 0,-34l1 -745c0,-90 4,-186 0,-275l1768 0 0 2647c1,-1 1,-4 2,-3 0,0 1,-3 1,-4l1 -28c-4,-422 0,-865 0,-1287 0,-32 5,-1292 -2,-1328 -44,-6 -1396,-1 -1552,-1 -40,0 -195,-5 -222,2l-2 1089z"/>
  </g>
 </g>
</svg>
