<?xml version="1.0" encoding="UTF-8"?>
<!DOCTYPE svg PUBLIC "-//W3C//DTD SVG 1.1//EN" "http://www.w3.org/Graphics/SVG/1.1/DTD/svg11.dtd">
<!-- Creator: CorelDRAW X7 -->
<svg xmlns="http://www.w3.org/2000/svg" xml:space="preserve" width="306.908mm" height="33.5788mm" version="1.1" style="shape-rendering:geometricPrecision; text-rendering:geometricPrecision; image-rendering:optimizeQuality; fill-rule:evenodd; clip-rule:evenodd"
viewBox="0 0 30691 3358"
 xmlns:xlink="http://www.w3.org/1999/xlink">
 <defs>
  <style type="text/css">
   <![CDATA[
    .fil1 {fill:black}
    .fil2 {fill:#ED2024}
    .fil0 {fill:white}
   ]]>
  </style>
 </defs>
 <g id="Layer_x0020_1">
  <metadata id="CorelCorpID_0Corel-Layer"/>
  <g id="_2691059253760">
   <path class="fil0" d="M18663 2657c-16,-18 -15,-24 -21,-46l-97 -271c-11,-37 -26,-71 -35,-111 12,-19 37,-44 53,-64 84,-100 80,-109 141,-195l-8 243c-5,32 -1,62 -3,95 -6,112 -30,234 -30,349zm55 -716l2 2c0,-1 -3,-2 -2,-2zm8075 -667l750 0 -159 1929 -760 -1 169 -1928zm-26429 -1131c48,-12 1369,-1 1541,-1 177,0 301,-6 450,63 226,105 354,319 415,614 63,297 52,646 20,953 -62,592 -228,1209 -675,1383 -159,62 -289,49 -468,49l-1029 -1c-161,0 -349,9 -508,-1l254 -3059zm5270 -16l1569 0c129,0 172,-10 291,23 559,153 717,597 651,1203 -19,178 -70,345 -139,484 -53,106 -184,293 -272,352 4,40 151,440 177,514 24,68 172,468 172,502l-842 1c-24,-39 -69,-185 -89,-241l-174 -487c-11,-31 -75,-233 -94,-239 -1,0 -635,-4 -664,4l-79 953 -763 0 256 -3069zm15969 2c125,-10 282,-2 410,-2l1231 0c381,0 664,91 804,428 126,304 78,777 -20,1067 -71,214 -191,377 -344,477 -213,140 -385,140 -679,140 -211,0 -628,-8 -814,1l-81 956 -761 2 254 -3069zm-18827 3059c-5,-67 13,-193 19,-266l107 -1300c38,-485 26,-953 396,-1295 87,-80 231,-152 378,-185 175,-40 344,-29 532,-29 371,0 714,-43 972,152 210,159 303,480 272,844 -58,693 -124,1391 -172,2083l-678 0 77 -933 -1127 -5 -77 934 -699 0zm15954 -10c69,-678 102,-1390 172,-2076 16,-164 59,-308 116,-447 108,-266 332,-449 614,-513 175,-40 344,-29 531,-29 96,0 498,-5 560,3 165,22 305,64 413,149 210,166 304,473 272,844 -29,348 -56,693 -86,1040 -30,344 -66,700 -86,1043l-678 0 76 -933 -1126 -5 -77 934 -699 10c-26,18 19,-8 -7,4 -18,9 -835,4 -842,3l-347 -964c-56,-6 -640,-7 -671,2l-79 953 -763 0 256 -3068c207,-7 424,-1 632,-1 208,0 416,0 625,0 154,0 471,-14 603,23 586,162 715,635 651,1203 -29,253 -114,486 -260,676 -52,68 -93,103 -149,163 0,42 144,423 170,498 12,33 153,463 179,488zm-7950 -2015c0,260 1,472 122,717 19,38 37,65 62,97 77,95 66,91 166,158 56,38 77,47 135,67l311 51c28,-1 37,-6 73,-6l815 0c-15,58 -82,61 -128,61 -455,0 -906,0 -1360,0 -48,0 -154,6 -184,3 -18,-1 -16,-7 -32,-14 -40,-16 -476,-7 -525,-7 -258,0 -515,0 -772,0 -82,0 -325,10 -374,-13 -62,-28 -69,-71 -75,-120 -13,-97 -12,-260 -4,-363 9,-113 12,-161 31,-275 34,-200 47,-245 106,-439 18,-60 92,-88 151,-88l1494 0c0,69 -12,106 -12,171zm5280 227c-145,0 -290,0 -435,0 -110,0 -287,-26 -334,52 -12,20 -7,16 -13,42 -9,38 -47,589 -62,703 -4,35 -8,68 -8,103 -153,0 -719,8 -831,-8 -14,-2 -24,-4 -37,-12 -7,-5 -25,-18 -31,-25 -68,-74 -33,-501 -19,-622l72 -375c34,-139 53,-256 197,-256l1537 0 -36 398zm11686 -1035l78 118c5,8 7,12 11,20 7,15 3,10 13,24l199 328c19,34 77,113 102,160 41,77 234,380 300,490 18,30 36,53 51,84 11,23 12,20 27,41 39,55 26,39 -39,126 -5,7 -10,12 -16,20 -7,8 -10,12 -17,20l-255 321c-12,15 -23,22 -35,38l-106 133c0,1 -7,9 -8,10l-63 78c-35,41 -31,45 -47,64 0,0 -7,7 -9,9l-154 189c-11,14 -16,26 -28,39l-163 204c-14,18 -52,70 -67,80 0,-58 14,-140 13,-195 0,-52 19,-211 23,-276 9,-129 26,-375 41,-486 8,-53 3,-106 11,-161 15,-107 21,-304 32,-390 22,-174 40,-281 -133,-280 -234,2 -469,0 -704,0l655 -12c127,0 242,17 251,-171 2,-37 -1,-75 0,-111 2,-39 13,-47 13,-97 -1,-108 13,-61 12,-209 -1,-75 9,-60 12,-98 3,-33 0,-76 0,-110zm-940 664c-7,-14 10,-198 12,-208l56 -658c2,-50 11,-39 16,-41 36,-15 261,8 317,8 74,0 395,-4 441,3 4,76 -11,159 -15,232 -3,71 -9,147 -16,220 -14,145 -18,303 -36,448 -79,7 -747,8 -775,-4zm-14015 -888l700 1c7,68 -19,256 -25,338l-168 2022c-23,300 -62,570 -397,700 -121,47 -182,47 -320,47l-1823 4 62 -821c64,-7 940,0 1032,0 167,0 349,7 514,0 184,-9 247,-183 231,-283 -153,-7 -321,-1 -476,-1 -157,0 -314,0 -471,0 -164,0 -284,-2 -411,-69 -365,-189 -366,-681 -335,-1059 12,-147 26,-293 37,-441l38 -429 675 -9c-7,182 -27,365 -39,548 -8,130 -53,407 10,503 45,69 105,78 208,78 118,0 798,5 856,-1l102 -1128zm13226 -16l759 8 -254 3081c-238,6 -529,0 -770,-1l101 -1189c-109,-4 -888,-7 -945,3l-95 1180c-179,3 -593,6 -761,0l255 -3073c96,-6 629,-3 760,-1l-93 1135 941 -4 102 -1139zm-15366 3081c-155,13 -360,2 -520,2l-1029 0c-173,0 -319,12 -465,-52 -474,-210 -487,-985 -425,-1586 62,-601 226,-1188 687,-1377 155,-63 279,-56 460,-56l1029 2c165,0 350,-8 515,1l-61 747c-216,8 -445,1 -662,1 -221,0 -441,0 -662,0 -173,0 -415,-37 -481,178 -54,175 -96,352 -120,542 -18,148 -44,480 -7,620 22,86 78,149 158,173 38,12 1525,9 1648,9l-65 796zm17101 -3056l976 0 387 659c13,16 5,8 17,16 77,-111 486,-619 517,-675l933 0c-10,22 -52,75 -69,97l-496 649c-97,126 -190,249 -283,372 -76,100 -218,277 -282,371 12,31 673,1113 716,1185 32,53 228,365 233,391l-958 0c-24,-26 -402,-629 -436,-681 -78,70 -534,675 -570,681l-970 0c3,-17 127,-167 150,-194l305 -381c53,-65 100,-128 152,-190 55,-65 100,-127 156,-194 56,-66 444,-549 457,-575l-935 -1531zm-11837 3053c-37,12 -1382,5 -1546,5 -176,0 -316,13 -465,-51 -479,-206 -486,-985 -428,-1585 58,-605 235,-1195 685,-1378 159,-65 281,-57 465,-57l1545 2 -65 749c-385,1 -770,0 -1155,0 -146,0 -432,-23 -536,37 -65,39 -96,80 -122,166 -23,78 -42,148 -60,227 -49,212 -147,852 -6,1014 58,67 102,74 216,74l857 1c18,-12 6,5 13,-21l7 -86c17,-221 43,-601 67,-789l664 3c7,31 -130,1588 -136,1689zm9902 -2060c-16,7 -38,12 -62,12l-661 0 37 -459c9,-135 23,-331 41,-467 7,-50 9,-109 -5,-145 -16,-37 -55,-62 -110,-62l-747 0c-153,0 -113,187 -137,365l-10 107c0,14 0,28 0,43 -16,-12 -17,-32 -28,-52 -69,-130 -145,-242 -280,-320 -28,-16 -47,-33 -78,-45 -20,-7 -38,-15 -56,-24 -97,-44 -228,-68 -336,-68l-1782 0c-47,0 -82,18 -100,60 -18,42 -27,231 -34,296 -6,52 -7,105 -7,159 -14,-10 -19,-30 -26,-47 -51,-124 -135,-236 -242,-316 -30,-23 -57,-46 -93,-61 -19,-8 -33,-15 -54,-25 -20,-10 -37,-14 -57,-23 -27,-12 -177,-54 -217,-53 -25,1 -9,-2 -34,-2 -227,0 -792,-9 -982,4 -36,2 1,-4 -29,-4l-230 57c-26,10 -50,14 -74,24l-66 33c-56,21 -205,140 -250,191l-25 30c-1,1 -2,2 -3,3 -24,23 -38,50 -58,77 -60,81 -123,200 -145,295l-12 0c-1,-32 -32,-111 -44,-140 -17,-41 -42,-87 -66,-123 -75,-113 -88,-119 -177,-203 -49,-47 -110,-79 -165,-116 -20,-13 -47,-20 -69,-30 -78,-37 -216,-86 -294,-86l-1764 0c-29,0 -44,10 -61,10 -17,0 -32,-10 -61,-10l-1770 0c-70,0 -170,20 -232,45l-72 26c-18,6 -14,7 -28,15l-89 51c-51,28 -165,129 -198,176 -42,59 -76,99 -116,165l-89 175c-7,15 -2,6 -9,15l22 -284c3,-22 4,-50 6,-67l10 -136c-3,-56 30,-181 -112,-181l-686 0c-128,0 -119,104 -130,202 -4,45 -13,103 -16,148 -4,48 -4,113 -11,161l-50 537c-3,27 -7,57 -7,79l-815 0c-99,0 -63,-134 -61,-276 1,-81 33,-411 42,-520 2,-24 0,-50 0,-74 3,-86 44,-219 -66,-251 -22,-6 -560,1 -613,1 -137,0 -263,-7 -404,-7l-1538 0c-38,0 -62,7 -93,12 -79,11 -97,22 -165,42 -92,28 -158,81 -234,134 -16,10 -17,13 -31,24l-55 55c-19,22 -30,33 -49,56 -17,21 -28,37 -45,59 -9,12 -13,16 -22,27 -11,14 -12,18 -21,33l-173 360c0,-103 -78,-280 -134,-368 -78,-124 -82,-115 -192,-218l-153 -104c-38,-22 -135,-53 -184,-74 -38,-16 -85,-21 -122,-30 -21,-5 -23,-8 -48,-8l-1770 0c-152,0 -117,172 -136,342 -5,49 -11,90 -11,148l-15 -22c-5,-9 -7,-15 -11,-25 -15,-36 -30,-71 -53,-101 -76,-102 -123,-156 -233,-231l-76 -42c-9,-4 -21,-7 -31,-11 -67,-25 -106,-37 -181,-52 -41,-8 -92,-18 -141,-18 -224,0 -762,-9 -952,4 -35,2 1,-4 -28,-4 -34,0 -52,14 -84,20 -70,15 -142,30 -208,56 -96,38 -232,128 -302,200 -4,5 -6,8 -11,13 -130,129 -168,238 -242,396 -16,36 -35,89 -35,129 -18,-12 -10,-4 -16,-32 -18,-85 -37,-173 -75,-250 -82,-169 -146,-274 -303,-383l-7 -5c-73,-55 -221,-103 -322,-113 -36,-3 -58,-6 -98,-6l-1703 0c-150,0 -115,197 -130,310 -8,63 -10,135 -18,203l-44 513c-5,35 -1,70 -5,105 -16,112 -29,291 -35,412l-135 1622c0,137 132,116 232,116l1654 0c15,0 9,3 28,3l117 -17c138,-38 143,-39 260,-108 30,-18 65,-37 91,-62l39 -41c42,-35 77,-79 108,-124 39,-55 79,-112 110,-172l62 -128c0,53 -5,139 -11,186 -8,63 -8,121 -17,184 -5,32 0,62 -4,94 -5,34 -11,52 -3,85 14,56 48,88 114,88l674 0c55,0 76,-8 103,-38 24,-26 31,-63 32,-109 2,-86 24,-177 25,-263 0,-101 24,-344 35,-467 3,-27 -8,-54 20,-54l888 0c0,87 -29,357 -37,448l-15 217c-39,323 3,272 444,272 51,0 303,8 352,-2l836 2c153,0 116,-180 132,-290l21 -267c4,-136 31,-261 31,-398l496 0c25,107 182,497 228,647 6,20 16,40 24,62 7,22 15,47 23,68 34,91 40,190 166,190l821 0c114,0 130,-100 102,-182l-147 -422c-17,-38 -29,-76 -43,-117l-127 -362c0,-25 41,-49 56,-67l78 -106c24,-36 46,-76 75,-109 0,39 0,78 -1,116 0,119 20,255 28,368 5,63 34,179 51,239 13,43 23,91 42,130 45,94 85,176 153,257l118 114c23,17 44,35 71,46 17,7 28,10 44,18l128 49c108,29 221,16 333,16l1403 0c45,0 200,-10 228,5 32,18 19,29 75,41 73,15 476,-3 573,-3 467,0 935,5 1403,0 62,-1 143,-26 190,-42 58,-20 105,-44 157,-76 61,-37 77,-50 131,-102 16,-17 33,-45 50,-66 27,-33 50,-66 66,-105 45,-110 79,-212 79,-338 25,36 25,92 41,131 26,61 49,125 82,181 40,70 90,144 151,198 120,106 280,176 443,176l1794 0c32,0 46,-10 66,-9 28,1 34,9 69,9l735 0c111,0 113,-68 124,-158 2,-12 9,-43 10,-57 3,-24 0,-49 1,-73 4,-85 21,-175 24,-263 2,-28 7,-38 7,-67l14 -200c6,-42 10,-94 10,-137l496 0c4,47 72,201 89,260l187 517c9,22 11,42 21,65 28,71 43,125 144,125l821 0c47,0 54,-16 92,-18 116,-7 437,-1 569,0 141,1 156,-52 165,-178l19 -269c3,-110 31,-261 31,-374 -1,-43 6,-63 6,-110l906 0 -61 778c-2,71 -9,159 123,159l637 0c35,0 52,-9 75,-11 24,-1 38,11 72,11l741 0c97,0 124,-66 129,-159 2,-44 9,-90 11,-123l49 -606c2,-27 6,-46 7,-67l943 0c118,0 184,-25 276,-49 74,-19 112,-46 173,-72 23,-9 33,-21 52,-33 42,-28 102,-67 134,-105 25,-29 58,-54 79,-87 14,-21 19,-32 34,-51 20,-26 40,-80 67,-99 -2,90 -32,283 -37,380 -2,36 2,65 -4,100 -19,136 -25,351 -40,486 -6,49 -35,336 -28,386 9,62 47,99 115,99l735 0c181,0 128,-198 159,-460l55 -722 723 0c-4,180 -41,355 -43,533 0,61 -17,124 -18,184 -2,97 -30,290 -30,361 -2,148 189,110 287,110l294 0c39,0 51,7 92,6 63,0 134,3 196,0 33,-1 48,-15 84,-11 123,16 789,-3 830,4 24,4 17,7 48,7l955 0c46,0 83,-16 106,-41 9,-11 8,-11 16,-21 54,-68 114,-132 165,-202l283 -342c9,17 10,22 22,39l288 453c32,64 74,114 155,114l937 0c106,0 149,-110 94,-185 -12,-16 -23,-38 -32,-54l-65 -106c-13,-19 -22,-35 -33,-53l-48 -81c-55,-99 -120,-195 -179,-292 -5,-10 -9,-17 -15,-28 -3,-5 -4,-7 -7,-12 -6,-10 -4,-7 -9,-15l-453 -747c-16,-26 -44,-87 -67,-104 64,-96 144,-179 208,-276l246 -323c14,-17 23,-32 37,-49 40,-54 109,-131 141,-183l388 -506c50,-66 132,-160 56,-241 -20,-23 -43,-32 -84,-32l-919 0c-97,0 -126,95 -182,154l-50 67c-4,4 -4,4 -9,10 -55,60 -96,130 -149,193l-118 157c-33,-9 -38,-49 -55,-73 -64,-89 -116,-195 -171,-288l-51 -84c-11,-17 -15,-23 -26,-42l-24 -44c-34,-53 -83,-50 -151,-50 -64,0 -881,7 -924,-1 -33,-6 -55,-30 -105,-30l-753 0c-57,0 -37,17 -110,13 -134,-8 -291,12 -419,-5 -68,-9 -199,-2 -274,-2 -222,0 -174,72 -203,354l-56 642c-5,42 -10,79 -10,131z"/>
   <path class="fil1" d="M20702 1488l-1124 1c-1,-87 15,-199 23,-287 15,-156 4,-340 260,-360 86,-7 495,-3 615,-3 114,0 174,16 220,92 44,73 46,176 34,272 -12,95 -19,193 -28,285zm-3755 -62l41 -528c46,-9 610,-2 707,-2 169,0 468,-44 431,276 -35,302 -241,256 -462,256 -239,0 -478,0 -717,-2zm1783 1752c-26,-25 -167,-455 -179,-488 -26,-75 -170,-456 -170,-498 56,-60 97,-95 149,-163 146,-190 231,-423 260,-676 64,-568 -65,-1041 -651,-1203 -132,-37 -449,-23 -603,-23 -209,0 -417,0 -625,0 -208,0 -425,-6 -632,1l-256 3068 763 0 79 -953c31,-9 615,-8 671,-2l347 964c7,1 824,6 842,-3 26,-12 -19,14 7,-4l699 -10 77 -934 1126 5 -76 933 678 0c20,-343 56,-699 86,-1043 30,-347 57,-692 86,-1040 32,-371 -62,-678 -272,-844 -108,-85 -248,-127 -413,-149 -62,-8 -464,-3 -560,-3 -187,0 -356,-11 -531,29 -282,64 -506,247 -614,513 -57,139 -100,283 -116,447 -70,686 -103,1398 -172,2076z"/>
   <path class="fil2" d="M6346 896c238,-3 478,-1 716,-1 168,0 461,-39 419,284 -37,279 -201,249 -468,249 -236,0 -475,3 -713,-2l46 -530zm-968 2300l763 0 79 -953c29,-8 663,-4 664,-4 19,6 83,208 94,239l174 487c20,56 65,202 89,241l842 -1c0,-34 -148,-434 -172,-502 -26,-74 -173,-474 -177,-514 88,-59 219,-246 272,-352 69,-139 120,-306 139,-484 66,-606 -92,-1050 -651,-1203 -119,-33 -162,-23 -291,-23l-1569 0 -256 3069z"/>
   <path class="fil2" d="M12689 1259c-58,6 -738,1 -856,1 -103,0 -163,-9 -208,-78 -63,-96 -18,-373 -10,-503 12,-183 32,-366 39,-548l-675 9 -38 429c-11,148 -25,294 -37,441 -31,378 -30,870 335,1059 127,67 247,69 411,69 157,0 314,0 471,0 155,0 323,-6 476,1 16,100 -47,274 -231,283 -165,7 -347,0 -514,0 -92,0 -968,-7 -1032,0l-62 821 1823 -4c138,0 199,0 320,-47 335,-130 374,-400 397,-700l168 -2022c6,-82 32,-270 25,-338l-700 -1 -102 1128z"/>
   <path class="fil2" d="M3620 1488c7,-95 16,-192 25,-286 10,-105 1,-179 55,-258 94,-138 313,-104 514,-104 104,0 208,-1 312,-1 114,0 169,17 216,96 69,119 17,404 4,554l-1126 -1zm-844 1700l699 0 77 -934 1127 5 -77 933 678 0c48,-692 114,-1390 172,-2083 31,-364 -62,-685 -272,-844 -258,-195 -601,-152 -972,-152 -188,0 -357,-11 -532,29 -147,33 -291,105 -378,185 -370,342 -358,810 -396,1295l-107 1300c-6,73 -24,199 -19,266z"/>
   <path class="fil2" d="M832 2420l124 -1529c154,-11 351,-1 508,-1 480,0 627,-71 698,326 49,272 19,1101 -304,1198 -66,20 -415,7 -511,6 -171,0 -344,2 -515,0zm-722 782c159,10 347,1 508,1l1029 1c179,0 309,13 468,-49 447,-174 613,-791 675,-1383 32,-307 43,-656 -20,-953 -61,-295 -189,-509 -415,-614 -149,-69 -273,-63 -450,-63 -172,0 -1493,-11 -1541,1l-254 3059z"/>
   <path class="fil1" d="M25915 1254l-941 4 93 -1135c-131,-2 -664,-5 -760,1l-255 3073c168,6 582,3 761,0l95 -1180c57,-10 836,-7 945,-3l-101 1189c241,1 532,7 770,1l254 -3081 -759 -8 -102 1139z"/>
   <path class="fil1" d="M22271 1426c-1,-115 20,-267 30,-385 13,-168 -2,-147 61,-146l613 1c122,0 279,-20 376,33 95,51 123,159 92,299 -26,113 -88,187 -212,194 -130,8 -278,2 -409,2 -180,0 -374,6 -551,2zm-922 1772l761 -2 81 -956c186,-9 603,-1 814,-1 294,0 466,0 679,-140 153,-100 273,-263 344,-477 98,-290 146,-763 20,-1067 -140,-337 -423,-428 -804,-428l-1231 0c-128,0 -285,-8 -410,2l-254 3069z"/>
   <path class="fil1" d="M15915 3193c6,-101 143,-1658 136,-1689l-664 -3c-24,188 -50,568 -67,789l-7 86c-7,26 5,9 -13,21l-857 -1c-114,0 -158,-7 -216,-74 -141,-162 -43,-802 6,-1014 18,-79 37,-149 60,-227 26,-86 57,-127 122,-166 104,-60 390,-37 536,-37 385,0 770,1 1155,0l65 -749 -1545 -2c-184,0 -306,-8 -465,57 -450,183 -627,773 -685,1378 -58,600 -51,1379 428,1585 149,64 289,51 465,51 164,0 1509,7 1546,-5z"/>
   <path class="fil1" d="M28687 1671c-13,26 -401,509 -457,575 -56,67 -101,129 -156,194 -52,62 -99,125 -152,190l-305 381c-23,27 -147,177 -150,194l970 0c36,-6 492,-611 570,-681 34,52 412,655 436,681l958 0c-5,-26 -201,-338 -233,-391 -43,-72 -704,-1154 -716,-1185 64,-94 206,-271 282,-371 93,-123 186,-246 283,-372l496 -649c17,-22 59,-75 69,-97l-933 0c-31,56 -440,564 -517,675 -12,-8 -4,0 -17,-16l-387 -659 -976 0 935 1531z"/>
   <path class="fil2" d="M10651 3196l65 -796c-123,0 -1610,3 -1648,-9 -80,-24 -136,-87 -158,-173 -37,-140 -11,-472 7,-620 24,-190 66,-367 120,-542 66,-215 308,-178 481,-178 221,0 441,0 662,0 217,0 446,7 662,-1l61 -747c-165,-9 -350,-1 -515,-1l-1029 -2c-181,0 -305,-7 -460,56 -461,189 -625,776 -687,1377 -62,601 -49,1376 425,1586 146,64 292,52 465,52l1029 0c160,0 365,11 520,-2z"/>
   <polygon class="fil1" points="26624,3202 27384,3203 27543,1274 26793,1274 "/>
   <path class="fil2" d="M26806 1019c28,12 696,11 775,4 18,-145 22,-303 36,-448 7,-73 13,-149 16,-220 4,-73 19,-156 15,-232 -46,-7 -367,-3 -441,-3 -56,0 -281,-23 -317,-8 -5,2 -14,-9 -16,41l-56 658c-2,10 -19,194 -12,208z"/>
   <path class="fil0" d="M2070 1451l-10 223c-15,101 -10,152 -41,289l-47 155c-7,19 -14,31 -23,51 -22,49 -63,139 -136,139l-380 0c-24,0 -28,-4 -43,-4 -15,0 -19,4 -43,4l-392 0c0,-26 52,-717 66,-822 4,-28 0,-53 4,-81 4,-25 7,-63 9,-84l17 -246c4,-32 -8,-71 21,-71l826 0c63,0 108,46 126,107 27,94 24,108 37,189 8,43 9,105 9,151zm-1238 969c171,2 344,0 515,0 96,1 445,14 511,-6 323,-97 353,-926 304,-1198 -71,-397 -218,-326 -698,-326 -157,0 -354,-10 -508,1l-124 1529z"/>
   <path class="fil0" d="M4642 1378l-900 0 24 -301c21,-106 92,-128 197,-128l330 0c36,0 55,6 80,6 25,0 44,-6 80,-6 65,0 156,-12 190,37 48,70 16,203 10,280 -2,28 -1,71 -11,112zm-1022 110l1126 1c13,-150 65,-435 -4,-554 -47,-79 -102,-96 -216,-96 -104,0 -208,1 -312,1 -201,0 -420,-34 -514,104 -54,79 -45,153 -55,258 -9,94 -18,191 -25,286z"/>
   <path class="fil0" d="M20604 1378l-906 0 24 -301c23,-113 103,-128 202,-128l607 0c13,0 56,20 68,36 51,73 5,281 5,393zm98 110c9,-92 16,-190 28,-285 12,-96 10,-199 -34,-272 -46,-76 -106,-92 -220,-92 -120,0 -529,-4 -615,3 -256,20 -245,204 -260,360 -8,88 -24,200 -23,287l1124 -1z"/>
   <path class="fil0" d="M23342 1114l-4 75c-26,170 -165,121 -382,121 -192,0 -372,6 -569,6 13,-27 24,-253 24,-312l815 0c29,0 67,18 84,32 12,10 21,21 26,35 2,4 6,30 6,43zm-1071 312c177,4 371,-2 551,-2 131,0 279,6 409,-2 124,-7 186,-81 212,-194 31,-140 3,-248 -92,-299 -97,-53 -254,-33 -376,-33l-613 -1c-63,-1 -48,-22 -61,146 -10,118 -31,270 -30,385z"/>
   <path class="fil0" d="M7221 1316l-796 0c0,-106 16,-213 24,-312l772 0c77,0 153,26 153,110 0,72 -15,154 -75,188 -19,10 -51,14 -78,14zm-921 110c238,5 477,2 713,2 267,0 431,30 468,-249 42,-323 -251,-284 -419,-284 -238,0 -478,-2 -716,1l-46 530z"/>
   <path class="fil0" d="M17064 1316c8,-100 25,-202 25,-312l808 0c31,0 71,17 89,34 64,62 37,250 -70,273 -54,12 -761,5 -852,5zm-117 110c239,2 478,2 717,2 221,0 427,46 462,-256 37,-320 -262,-276 -431,-276 -97,0 -661,-7 -707,2l-41 528z"/>
  </g>
 </g>
</svg>
